G04 Layer_Physical_Order=2*
G04 Layer_Color=16711680*
%FSLAX44Y44*%
%MOMM*%
G71*
G01*
G75*
%ADD10C,0.1270*%
%ADD11C,0.2540*%
%ADD12C,1.1000*%
%ADD13C,1.8000*%
D10*
X1647370Y304800D02*
X1629590Y287020D01*
X1494970D01*
X1486080Y295910D01*
Y340360D01*
X1492490Y346770D02*
X1486080Y340360D01*
X1505430Y346770D02*
X1492490D01*
X1698170Y304800D02*
X1672770D01*
X1708330Y314960D02*
X1698170Y304800D01*
X1708330Y314960D02*
Y388620D01*
X1699440Y397510D01*
X1571370D01*
X1530830Y356970D01*
X1637955Y344695D02*
X1627050Y355600D01*
X1659325Y344695D02*
X1637955D01*
X1670230Y355600D02*
X1659325Y344695D01*
X1672770Y355600D02*
X1670230D01*
X1660815Y342155D02*
X1637735D01*
X1672770Y330200D02*
X1660815Y342155D01*
X1522910Y345440D02*
X1520370Y342900D01*
Y325120D02*
Y342900D01*
X1529320Y316170D02*
X1520370Y325120D01*
X1530830Y316170D02*
X1529320D01*
X1520370Y347980D02*
X1514020Y341630D01*
X1536880Y347980D02*
X1520370D01*
X1577520Y388620D02*
X1536880Y347980D01*
X1514020Y314560D02*
Y341630D01*
Y314560D02*
X1505430Y305970D01*
X1647370Y355600D02*
Y384810D01*
X1643560Y388620D01*
X1577520D01*
X1497510Y295910D02*
X1492430Y300990D01*
Y313370D01*
X1505430Y326370D02*
X1492430Y313370D01*
X1627050Y355600D02*
X1561010D01*
X1550850Y345440D01*
X1522910D01*
X1647370Y330200D02*
X1592760D01*
X1558470Y295910D01*
X1497510D01*
X1637735Y342155D02*
X1632150Y336570D01*
X1530830D01*
D11*
X1439090Y354330D02*
X1454325D01*
Y346712D01*
X1451786Y344173D01*
X1446707D01*
X1444168Y346712D01*
Y354330D01*
Y349252D02*
X1439090Y344173D01*
X1451786Y328938D02*
X1454325Y331477D01*
Y336556D01*
X1451786Y339095D01*
X1449247D01*
X1446707Y336556D01*
Y331477D01*
X1444168Y328938D01*
X1441629D01*
X1439090Y331477D01*
Y336556D01*
X1441629Y339095D01*
X1446707Y323860D02*
Y313703D01*
X1454325Y308625D02*
X1444168D01*
X1439090Y303546D01*
X1444168Y298468D01*
X1454325D01*
X1439090Y293390D02*
X1449247D01*
X1454325Y288311D01*
X1449247Y283233D01*
X1439090D01*
X1446707D01*
Y293390D01*
X1498780Y265430D02*
Y275587D01*
X1503858Y280665D01*
X1508937Y275587D01*
Y265430D01*
Y273048D01*
X1498780D01*
X1514015Y280665D02*
Y270508D01*
X1519093Y265430D01*
X1524172Y270508D01*
Y280665D01*
X1529250Y265430D02*
Y280665D01*
X1536868D01*
X1539407Y278126D01*
Y273048D01*
X1536868Y270508D01*
X1529250D01*
X1534328D02*
X1539407Y265430D01*
X1544485Y273048D02*
X1554642D01*
X1559720Y265430D02*
X1567338Y273048D01*
X1559720Y280665D01*
X1587651D02*
X1597808D01*
X1592730D01*
Y265430D01*
X1602886D02*
Y275587D01*
X1607965Y280665D01*
X1613043Y275587D01*
Y265430D01*
Y273048D01*
X1602886D01*
X1628278Y278126D02*
X1625739Y280665D01*
X1620661D01*
X1618121Y278126D01*
Y267969D01*
X1620661Y265430D01*
X1625739D01*
X1628278Y267969D01*
Y273048D01*
X1623200D01*
X1651131Y265430D02*
X1656209D01*
X1658748Y267969D01*
Y273048D01*
X1656209Y275587D01*
X1651131D01*
X1648591Y273048D01*
Y267969D01*
X1651131Y265430D01*
X1663827Y275587D02*
X1668905Y265430D01*
X1673983Y275587D01*
X1686679Y265430D02*
X1681601D01*
X1679062Y267969D01*
Y273048D01*
X1681601Y275587D01*
X1686679D01*
X1689218Y273048D01*
Y270508D01*
X1679062D01*
X1694297Y275587D02*
Y265430D01*
Y270508D01*
X1696836Y273048D01*
X1699375Y275587D01*
X1701914D01*
X1714610Y260352D02*
X1717149D01*
X1719689Y262891D01*
Y275587D01*
X1712071D01*
X1709532Y273048D01*
Y267969D01*
X1712071Y265430D01*
X1719689D01*
X1727306Y275587D02*
X1732384D01*
X1734924Y273048D01*
Y265430D01*
X1727306D01*
X1724767Y267969D01*
X1727306Y270508D01*
X1734924D01*
X1740002Y265430D02*
Y275587D01*
X1747619D01*
X1750159Y273048D01*
Y265430D01*
X1760315Y260352D02*
X1762855D01*
X1765394Y262891D01*
Y275587D01*
X1757776D01*
X1755237Y273048D01*
Y267969D01*
X1757776Y265430D01*
X1765394D01*
D12*
X1530830Y356970D02*
D03*
X1505430Y346770D02*
D03*
X1530830Y336570D02*
D03*
X1505430Y326370D02*
D03*
X1530830Y316170D02*
D03*
X1505430Y305970D02*
D03*
D13*
X1647370Y304800D02*
D03*
Y355600D02*
D03*
Y330200D02*
D03*
X1672770D02*
D03*
Y355600D02*
D03*
Y304800D02*
D03*
M02*
