G04 Layer_Physical_Order=2*
G04 Layer_Color=16711680*
%FSLAX44Y44*%
%MOMM*%
G71*
G01*
G75*
%ADD10C,0.1270*%
%ADD11C,1.8000*%
%ADD12C,1.1000*%
D10*
X1632150Y336570D02*
X1530830D01*
X1637735Y342155D02*
X1632150Y336570D01*
X1558470Y295910D02*
X1497510D01*
X1592760Y330200D02*
X1558470Y295910D01*
X1647370Y330200D02*
X1592760D01*
X1550850Y345440D02*
X1522910D01*
X1561010Y355600D02*
X1550850Y345440D01*
X1627050Y355600D02*
X1561010D01*
X1505430Y326370D02*
X1492430Y313370D01*
Y300990D02*
Y313370D01*
X1497510Y295910D02*
X1492430Y300990D01*
X1643560Y388620D02*
X1577520D01*
X1647370Y384810D02*
X1643560Y388620D01*
X1647370Y355600D02*
Y384810D01*
X1514020Y314560D02*
X1505430Y305970D01*
X1514020Y314560D02*
Y341630D01*
X1577520Y388620D02*
X1536880Y347980D01*
X1520370D01*
X1514020Y341630D01*
X1530830Y316170D02*
X1529320D01*
X1520370Y325120D01*
Y342900D01*
X1522910Y345440D02*
X1520370Y342900D01*
X1672770Y330200D02*
X1660815Y342155D01*
X1637735D01*
X1672770Y355600D02*
X1670230D01*
X1659325Y344695D01*
X1637955D01*
X1627050Y355600D01*
X1571370Y397510D02*
X1530830Y356970D01*
X1699440Y397510D02*
X1571370D01*
X1708330Y388620D02*
X1699440Y397510D01*
X1708330Y314960D02*
Y388620D01*
Y314960D02*
X1698170Y304800D01*
X1672770D01*
X1505430Y346770D02*
X1492490D01*
X1486080Y340360D01*
Y295910D02*
Y340360D01*
X1494970Y287020D02*
X1486080Y295910D01*
X1629590Y287020D02*
X1494970D01*
X1647370Y304800D02*
X1629590Y287020D01*
D11*
X1672770Y304800D02*
D03*
Y355600D02*
D03*
Y330200D02*
D03*
X1647370D02*
D03*
Y355600D02*
D03*
Y304800D02*
D03*
D12*
X1505430Y305970D02*
D03*
X1530830Y316170D02*
D03*
X1505430Y326370D02*
D03*
X1530830Y336570D02*
D03*
X1505430Y346770D02*
D03*
X1530830Y356970D02*
D03*
M02*
